<mxfile host="app.diagrams.net" modified="2023-11-07T10:12:24.650Z" agent="Mozilla/5.0 (Windows NT 10.0; Win64; x64) AppleWebKit/537.36 (KHTML, like Gecko) Chrome/119.0.0.0 Safari/537.36" etag="6CDUZpgigy7c7joNCK3F" version="22.0.8" type="device">
  <diagram id="C5RBs43oDa-KdzZeNtuy" name="Page-1">
    <mxGraphModel dx="764" dy="662" grid="1" gridSize="10" guides="1" tooltips="1" connect="1" arrows="1" fold="1" page="1" pageScale="1" pageWidth="827" pageHeight="1169" math="0" shadow="0">
      <root>
        <mxCell id="WIyWlLk6GJQsqaUBKTNV-0" />
        <mxCell id="WIyWlLk6GJQsqaUBKTNV-1" parent="WIyWlLk6GJQsqaUBKTNV-0" />
        <mxCell id="VKsIo6Bwxz8uDlpRGmw7-0" value="Clinica" style="swimlane;fontStyle=0;align=center;verticalAlign=top;childLayout=stackLayout;horizontal=1;startSize=26;horizontalStack=0;resizeParent=1;resizeLast=0;collapsible=1;marginBottom=0;rounded=0;shadow=0;strokeWidth=1;" parent="WIyWlLk6GJQsqaUBKTNV-1" vertex="1">
          <mxGeometry x="860" y="360" width="190" height="294" as="geometry">
            <mxRectangle x="230" y="140" width="160" height="26" as="alternateBounds" />
          </mxGeometry>
        </mxCell>
        <mxCell id="VKsIo6Bwxz8uDlpRGmw7-1" value="- nome: String " style="text;align=left;verticalAlign=top;spacingLeft=4;spacingRight=4;overflow=hidden;rotatable=0;points=[[0,0.5],[1,0.5]];portConstraint=eastwest;" parent="VKsIo6Bwxz8uDlpRGmw7-0" vertex="1">
          <mxGeometry y="26" width="190" height="26" as="geometry" />
        </mxCell>
        <mxCell id="VKsIo6Bwxz8uDlpRGmw7-2" value="- email: String " style="text;align=left;verticalAlign=top;spacingLeft=4;spacingRight=4;overflow=hidden;rotatable=0;points=[[0,0.5],[1,0.5]];portConstraint=eastwest;rounded=0;shadow=0;html=0;" parent="VKsIo6Bwxz8uDlpRGmw7-0" vertex="1">
          <mxGeometry y="52" width="190" height="26" as="geometry" />
        </mxCell>
        <mxCell id="VKsIo6Bwxz8uDlpRGmw7-3" value="- telefone: String" style="text;align=left;verticalAlign=top;spacingLeft=4;spacingRight=4;overflow=hidden;rotatable=0;points=[[0,0.5],[1,0.5]];portConstraint=eastwest;rounded=0;shadow=0;html=0;" parent="VKsIo6Bwxz8uDlpRGmw7-0" vertex="1">
          <mxGeometry y="78" width="190" height="26" as="geometry" />
        </mxCell>
        <mxCell id="VKsIo6Bwxz8uDlpRGmw7-7" value="- descricao: String" style="text;align=left;verticalAlign=top;spacingLeft=4;spacingRight=4;overflow=hidden;rotatable=0;points=[[0,0.5],[1,0.5]];portConstraint=eastwest;rounded=0;shadow=0;html=0;" parent="VKsIo6Bwxz8uDlpRGmw7-0" vertex="1">
          <mxGeometry y="104" width="190" height="26" as="geometry" />
        </mxCell>
        <mxCell id="VKsIo6Bwxz8uDlpRGmw7-8" value="- imagem: String " style="text;align=left;verticalAlign=top;spacingLeft=4;spacingRight=4;overflow=hidden;rotatable=0;points=[[0,0.5],[1,0.5]];portConstraint=eastwest;" parent="VKsIo6Bwxz8uDlpRGmw7-0" vertex="1">
          <mxGeometry y="130" width="190" height="26" as="geometry" />
        </mxCell>
        <mxCell id="VKsIo6Bwxz8uDlpRGmw7-9" value="- bairro: String" style="text;align=left;verticalAlign=top;spacingLeft=4;spacingRight=4;overflow=hidden;rotatable=0;points=[[0,0.5],[1,0.5]];portConstraint=eastwest;" parent="VKsIo6Bwxz8uDlpRGmw7-0" vertex="1">
          <mxGeometry y="156" width="190" height="26" as="geometry" />
        </mxCell>
        <mxCell id="VKsIo6Bwxz8uDlpRGmw7-10" value="- cidade: String" style="text;align=left;verticalAlign=top;spacingLeft=4;spacingRight=4;overflow=hidden;rotatable=0;points=[[0,0.5],[1,0.5]];portConstraint=eastwest;" parent="VKsIo6Bwxz8uDlpRGmw7-0" vertex="1">
          <mxGeometry y="182" width="190" height="26" as="geometry" />
        </mxCell>
        <mxCell id="VKsIo6Bwxz8uDlpRGmw7-11" value="- estado: String" style="text;align=left;verticalAlign=top;spacingLeft=4;spacingRight=4;overflow=hidden;rotatable=0;points=[[0,0.5],[1,0.5]];portConstraint=eastwest;" parent="VKsIo6Bwxz8uDlpRGmw7-0" vertex="1">
          <mxGeometry y="208" width="190" height="26" as="geometry" />
        </mxCell>
        <mxCell id="VKsIo6Bwxz8uDlpRGmw7-12" value="- uf: String" style="text;align=left;verticalAlign=top;spacingLeft=4;spacingRight=4;overflow=hidden;rotatable=0;points=[[0,0.5],[1,0.5]];portConstraint=eastwest;" parent="VKsIo6Bwxz8uDlpRGmw7-0" vertex="1">
          <mxGeometry y="234" width="190" height="26" as="geometry" />
        </mxCell>
        <mxCell id="VKsIo6Bwxz8uDlpRGmw7-13" value="- patrocinada: boolean" style="text;align=left;verticalAlign=top;spacingLeft=4;spacingRight=4;overflow=hidden;rotatable=0;points=[[0,0.5],[1,0.5]];portConstraint=eastwest;" parent="VKsIo6Bwxz8uDlpRGmw7-0" vertex="1">
          <mxGeometry y="260" width="190" height="26" as="geometry" />
        </mxCell>
        <mxCell id="VKsIo6Bwxz8uDlpRGmw7-4" value="" style="line;html=1;strokeWidth=1;align=left;verticalAlign=middle;spacingTop=-1;spacingLeft=3;spacingRight=3;rotatable=0;labelPosition=right;points=[];portConstraint=eastwest;" parent="VKsIo6Bwxz8uDlpRGmw7-0" vertex="1">
          <mxGeometry y="286" width="190" height="8" as="geometry" />
        </mxCell>
        <mxCell id="VKsIo6Bwxz8uDlpRGmw7-14" value="Frase" style="swimlane;fontStyle=0;align=center;verticalAlign=top;childLayout=stackLayout;horizontal=1;startSize=26;horizontalStack=0;resizeParent=1;resizeLast=0;collapsible=1;marginBottom=0;rounded=0;shadow=0;strokeWidth=1;" parent="WIyWlLk6GJQsqaUBKTNV-1" vertex="1">
          <mxGeometry x="860" y="734" width="190" height="86" as="geometry">
            <mxRectangle x="230" y="140" width="160" height="26" as="alternateBounds" />
          </mxGeometry>
        </mxCell>
        <mxCell id="VKsIo6Bwxz8uDlpRGmw7-15" value="- frase: String" style="text;align=left;verticalAlign=top;spacingLeft=4;spacingRight=4;overflow=hidden;rotatable=0;points=[[0,0.5],[1,0.5]];portConstraint=eastwest;" parent="VKsIo6Bwxz8uDlpRGmw7-14" vertex="1">
          <mxGeometry y="26" width="190" height="26" as="geometry" />
        </mxCell>
        <mxCell id="VKsIo6Bwxz8uDlpRGmw7-16" value="- dataCriacao: String" style="text;align=left;verticalAlign=top;spacingLeft=4;spacingRight=4;overflow=hidden;rotatable=0;points=[[0,0.5],[1,0.5]];portConstraint=eastwest;rounded=0;shadow=0;html=0;" parent="VKsIo6Bwxz8uDlpRGmw7-14" vertex="1">
          <mxGeometry y="52" width="190" height="26" as="geometry" />
        </mxCell>
        <mxCell id="VKsIo6Bwxz8uDlpRGmw7-25" value="" style="line;html=1;strokeWidth=1;align=left;verticalAlign=middle;spacingTop=-1;spacingLeft=3;spacingRight=3;rotatable=0;labelPosition=right;points=[];portConstraint=eastwest;" parent="VKsIo6Bwxz8uDlpRGmw7-14" vertex="1">
          <mxGeometry y="78" width="190" height="8" as="geometry" />
        </mxCell>
        <mxCell id="VKsIo6Bwxz8uDlpRGmw7-26" value="Humor    " style="swimlane;fontStyle=0;align=center;verticalAlign=top;childLayout=stackLayout;horizontal=1;startSize=26;horizontalStack=0;resizeParent=1;resizeLast=0;collapsible=1;marginBottom=0;rounded=0;shadow=0;strokeWidth=1;" parent="WIyWlLk6GJQsqaUBKTNV-1" vertex="1">
          <mxGeometry x="1430" y="30" width="190" height="112" as="geometry">
            <mxRectangle x="230" y="140" width="160" height="26" as="alternateBounds" />
          </mxGeometry>
        </mxCell>
        <mxCell id="VKsIo6Bwxz8uDlpRGmw7-27" value="- data: String" style="text;align=left;verticalAlign=top;spacingLeft=4;spacingRight=4;overflow=hidden;rotatable=0;points=[[0,0.5],[1,0.5]];portConstraint=eastwest;" parent="VKsIo6Bwxz8uDlpRGmw7-26" vertex="1">
          <mxGeometry y="26" width="190" height="26" as="geometry" />
        </mxCell>
        <mxCell id="VKsIo6Bwxz8uDlpRGmw7-28" value="- nivelSatisfacao: Integer" style="text;align=left;verticalAlign=top;spacingLeft=4;spacingRight=4;overflow=hidden;rotatable=0;points=[[0,0.5],[1,0.5]];portConstraint=eastwest;rounded=0;shadow=0;html=0;" parent="VKsIo6Bwxz8uDlpRGmw7-26" vertex="1">
          <mxGeometry y="52" width="190" height="26" as="geometry" />
        </mxCell>
        <mxCell id="VKsIo6Bwxz8uDlpRGmw7-30" value="- comentario: String" style="text;align=left;verticalAlign=top;spacingLeft=4;spacingRight=4;overflow=hidden;rotatable=0;points=[[0,0.5],[1,0.5]];portConstraint=eastwest;rounded=0;shadow=0;html=0;" parent="VKsIo6Bwxz8uDlpRGmw7-26" vertex="1">
          <mxGeometry y="78" width="190" height="26" as="geometry" />
        </mxCell>
        <mxCell id="VKsIo6Bwxz8uDlpRGmw7-29" value="" style="line;html=1;strokeWidth=1;align=left;verticalAlign=middle;spacingTop=-1;spacingLeft=3;spacingRight=3;rotatable=0;labelPosition=right;points=[];portConstraint=eastwest;" parent="VKsIo6Bwxz8uDlpRGmw7-26" vertex="1">
          <mxGeometry y="104" width="190" height="8" as="geometry" />
        </mxCell>
        <mxCell id="VKsIo6Bwxz8uDlpRGmw7-38" value="Missao " style="swimlane;fontStyle=0;align=center;verticalAlign=top;childLayout=stackLayout;horizontal=1;startSize=26;horizontalStack=0;resizeParent=1;resizeLast=0;collapsible=1;marginBottom=0;rounded=0;shadow=0;strokeWidth=1;" parent="WIyWlLk6GJQsqaUBKTNV-1" vertex="1">
          <mxGeometry x="860" y="30" width="190" height="140" as="geometry">
            <mxRectangle x="230" y="140" width="160" height="26" as="alternateBounds" />
          </mxGeometry>
        </mxCell>
        <mxCell id="VKsIo6Bwxz8uDlpRGmw7-39" value="- nome: String " style="text;align=left;verticalAlign=top;spacingLeft=4;spacingRight=4;overflow=hidden;rotatable=0;points=[[0,0.5],[1,0.5]];portConstraint=eastwest;" parent="VKsIo6Bwxz8uDlpRGmw7-38" vertex="1">
          <mxGeometry y="26" width="190" height="26" as="geometry" />
        </mxCell>
        <mxCell id="VKsIo6Bwxz8uDlpRGmw7-40" value="- key: String " style="text;align=left;verticalAlign=top;spacingLeft=4;spacingRight=4;overflow=hidden;rotatable=0;points=[[0,0.5],[1,0.5]];portConstraint=eastwest;rounded=0;shadow=0;html=0;" parent="VKsIo6Bwxz8uDlpRGmw7-38" vertex="1">
          <mxGeometry y="52" width="190" height="26" as="geometry" />
        </mxCell>
        <mxCell id="VKsIo6Bwxz8uDlpRGmw7-33" value="- descricao: String" style="text;align=left;verticalAlign=top;spacingLeft=4;spacingRight=4;overflow=hidden;rotatable=0;points=[[0,0.5],[1,0.5]];portConstraint=eastwest;rounded=0;shadow=0;html=0;" parent="VKsIo6Bwxz8uDlpRGmw7-38" vertex="1">
          <mxGeometry y="78" width="190" height="26" as="geometry" />
        </mxCell>
        <mxCell id="VKsIo6Bwxz8uDlpRGmw7-41" value="- valor: int" style="text;align=left;verticalAlign=top;spacingLeft=4;spacingRight=4;overflow=hidden;rotatable=0;points=[[0,0.5],[1,0.5]];portConstraint=eastwest;rounded=0;shadow=0;html=0;" parent="VKsIo6Bwxz8uDlpRGmw7-38" vertex="1">
          <mxGeometry y="104" width="190" height="26" as="geometry" />
        </mxCell>
        <mxCell id="VKsIo6Bwxz8uDlpRGmw7-49" value="" style="line;html=1;strokeWidth=1;align=left;verticalAlign=middle;spacingTop=-1;spacingLeft=3;spacingRight=3;rotatable=0;labelPosition=right;points=[];portConstraint=eastwest;" parent="VKsIo6Bwxz8uDlpRGmw7-38" vertex="1">
          <mxGeometry y="130" width="190" height="8" as="geometry" />
        </mxCell>
        <mxCell id="VKsIo6Bwxz8uDlpRGmw7-50" value="Playlist" style="swimlane;fontStyle=0;align=center;verticalAlign=top;childLayout=stackLayout;horizontal=1;startSize=26;horizontalStack=0;resizeParent=1;resizeLast=0;collapsible=1;marginBottom=0;rounded=0;shadow=0;strokeWidth=1;" parent="WIyWlLk6GJQsqaUBKTNV-1" vertex="1">
          <mxGeometry x="1146" y="734" width="190" height="138" as="geometry">
            <mxRectangle x="230" y="140" width="160" height="26" as="alternateBounds" />
          </mxGeometry>
        </mxCell>
        <mxCell id="VKsIo6Bwxz8uDlpRGmw7-51" value="- titulo: String " style="text;align=left;verticalAlign=top;spacingLeft=4;spacingRight=4;overflow=hidden;rotatable=0;points=[[0,0.5],[1,0.5]];portConstraint=eastwest;" parent="VKsIo6Bwxz8uDlpRGmw7-50" vertex="1">
          <mxGeometry y="26" width="190" height="26" as="geometry" />
        </mxCell>
        <mxCell id="VKsIo6Bwxz8uDlpRGmw7-52" value="- descricao: String " style="text;align=left;verticalAlign=top;spacingLeft=4;spacingRight=4;overflow=hidden;rotatable=0;points=[[0,0.5],[1,0.5]];portConstraint=eastwest;rounded=0;shadow=0;html=0;" parent="VKsIo6Bwxz8uDlpRGmw7-50" vertex="1">
          <mxGeometry y="52" width="190" height="26" as="geometry" />
        </mxCell>
        <mxCell id="VKsIo6Bwxz8uDlpRGmw7-53" value="- imagem: int" style="text;align=left;verticalAlign=top;spacingLeft=4;spacingRight=4;overflow=hidden;rotatable=0;points=[[0,0.5],[1,0.5]];portConstraint=eastwest;rounded=0;shadow=0;html=0;" parent="VKsIo6Bwxz8uDlpRGmw7-50" vertex="1">
          <mxGeometry y="78" width="190" height="26" as="geometry" />
        </mxCell>
        <mxCell id="VKsIo6Bwxz8uDlpRGmw7-54" value="- isPremium: boolean" style="text;align=left;verticalAlign=top;spacingLeft=4;spacingRight=4;overflow=hidden;rotatable=0;points=[[0,0.5],[1,0.5]];portConstraint=eastwest;rounded=0;shadow=0;html=0;" parent="VKsIo6Bwxz8uDlpRGmw7-50" vertex="1">
          <mxGeometry y="104" width="190" height="26" as="geometry" />
        </mxCell>
        <mxCell id="VKsIo6Bwxz8uDlpRGmw7-56" value="" style="line;html=1;strokeWidth=1;align=left;verticalAlign=middle;spacingTop=-1;spacingLeft=3;spacingRight=3;rotatable=0;labelPosition=right;points=[];portConstraint=eastwest;" parent="VKsIo6Bwxz8uDlpRGmw7-50" vertex="1">
          <mxGeometry y="130" width="190" height="8" as="geometry" />
        </mxCell>
        <mxCell id="VKsIo6Bwxz8uDlpRGmw7-57" value="Respiracao" style="swimlane;fontStyle=0;align=center;verticalAlign=top;childLayout=stackLayout;horizontal=1;startSize=26;horizontalStack=0;resizeParent=1;resizeLast=0;collapsible=1;marginBottom=0;rounded=0;shadow=0;strokeWidth=1;" parent="WIyWlLk6GJQsqaUBKTNV-1" vertex="1">
          <mxGeometry x="1430" y="734" width="190" height="138" as="geometry">
            <mxRectangle x="230" y="140" width="160" height="26" as="alternateBounds" />
          </mxGeometry>
        </mxCell>
        <mxCell id="VKsIo6Bwxz8uDlpRGmw7-58" value="- titulo: String " style="text;align=left;verticalAlign=top;spacingLeft=4;spacingRight=4;overflow=hidden;rotatable=0;points=[[0,0.5],[1,0.5]];portConstraint=eastwest;" parent="VKsIo6Bwxz8uDlpRGmw7-57" vertex="1">
          <mxGeometry y="26" width="190" height="26" as="geometry" />
        </mxCell>
        <mxCell id="VKsIo6Bwxz8uDlpRGmw7-59" value="- descricao: String " style="text;align=left;verticalAlign=top;spacingLeft=4;spacingRight=4;overflow=hidden;rotatable=0;points=[[0,0.5],[1,0.5]];portConstraint=eastwest;rounded=0;shadow=0;html=0;" parent="VKsIo6Bwxz8uDlpRGmw7-57" vertex="1">
          <mxGeometry y="52" width="190" height="26" as="geometry" />
        </mxCell>
        <mxCell id="VKsIo6Bwxz8uDlpRGmw7-60" value="- tecnica: String" style="text;align=left;verticalAlign=top;spacingLeft=4;spacingRight=4;overflow=hidden;rotatable=0;points=[[0,0.5],[1,0.5]];portConstraint=eastwest;rounded=0;shadow=0;html=0;" parent="VKsIo6Bwxz8uDlpRGmw7-57" vertex="1">
          <mxGeometry y="78" width="190" height="26" as="geometry" />
        </mxCell>
        <mxCell id="VKsIo6Bwxz8uDlpRGmw7-61" value="- arquivo: String" style="text;align=left;verticalAlign=top;spacingLeft=4;spacingRight=4;overflow=hidden;rotatable=0;points=[[0,0.5],[1,0.5]];portConstraint=eastwest;rounded=0;shadow=0;html=0;" parent="VKsIo6Bwxz8uDlpRGmw7-57" vertex="1">
          <mxGeometry y="104" width="190" height="26" as="geometry" />
        </mxCell>
        <mxCell id="VKsIo6Bwxz8uDlpRGmw7-63" value="" style="line;html=1;strokeWidth=1;align=left;verticalAlign=middle;spacingTop=-1;spacingLeft=3;spacingRight=3;rotatable=0;labelPosition=right;points=[];portConstraint=eastwest;" parent="VKsIo6Bwxz8uDlpRGmw7-57" vertex="1">
          <mxGeometry y="130" width="190" height="8" as="geometry" />
        </mxCell>
        <mxCell id="VKsIo6Bwxz8uDlpRGmw7-74" value="Usuario" style="swimlane;fontStyle=0;align=center;verticalAlign=top;childLayout=stackLayout;horizontal=1;startSize=26;horizontalStack=0;resizeParent=1;resizeLast=0;collapsible=1;marginBottom=0;rounded=0;shadow=0;strokeWidth=1;" parent="WIyWlLk6GJQsqaUBKTNV-1" vertex="1">
          <mxGeometry x="1145.5" y="30" width="190" height="294" as="geometry">
            <mxRectangle x="230" y="140" width="160" height="26" as="alternateBounds" />
          </mxGeometry>
        </mxCell>
        <mxCell id="VKsIo6Bwxz8uDlpRGmw7-75" value="- id: int" style="text;align=left;verticalAlign=top;spacingLeft=4;spacingRight=4;overflow=hidden;rotatable=0;points=[[0,0.5],[1,0.5]];portConstraint=eastwest;" parent="VKsIo6Bwxz8uDlpRGmw7-74" vertex="1">
          <mxGeometry y="26" width="190" height="26" as="geometry" />
        </mxCell>
        <mxCell id="VKsIo6Bwxz8uDlpRGmw7-76" value="- nome: String " style="text;align=left;verticalAlign=top;spacingLeft=4;spacingRight=4;overflow=hidden;rotatable=0;points=[[0,0.5],[1,0.5]];portConstraint=eastwest;rounded=0;shadow=0;html=0;" parent="VKsIo6Bwxz8uDlpRGmw7-74" vertex="1">
          <mxGeometry y="52" width="190" height="26" as="geometry" />
        </mxCell>
        <mxCell id="VKsIo6Bwxz8uDlpRGmw7-78" value="- saldo: int" style="text;align=left;verticalAlign=top;spacingLeft=4;spacingRight=4;overflow=hidden;rotatable=0;points=[[0,0.5],[1,0.5]];portConstraint=eastwest;rounded=0;shadow=0;html=0;" parent="VKsIo6Bwxz8uDlpRGmw7-74" vertex="1">
          <mxGeometry y="78" width="190" height="26" as="geometry" />
        </mxCell>
        <mxCell id="VKsIo6Bwxz8uDlpRGmw7-77" value="- diasConsecutivos: int" style="text;align=left;verticalAlign=top;spacingLeft=4;spacingRight=4;overflow=hidden;rotatable=0;points=[[0,0.5],[1,0.5]];portConstraint=eastwest;rounded=0;shadow=0;html=0;" parent="VKsIo6Bwxz8uDlpRGmw7-74" vertex="1">
          <mxGeometry y="104" width="190" height="26" as="geometry" />
        </mxCell>
        <mxCell id="VKsIo6Bwxz8uDlpRGmw7-79" value="- email: String " style="text;align=left;verticalAlign=top;spacingLeft=4;spacingRight=4;overflow=hidden;rotatable=0;points=[[0,0.5],[1,0.5]];portConstraint=eastwest;" parent="VKsIo6Bwxz8uDlpRGmw7-74" vertex="1">
          <mxGeometry y="130" width="190" height="26" as="geometry" />
        </mxCell>
        <mxCell id="VKsIo6Bwxz8uDlpRGmw7-136" value="- senha: String " style="text;align=left;verticalAlign=top;spacingLeft=4;spacingRight=4;overflow=hidden;rotatable=0;points=[[0,0.5],[1,0.5]];portConstraint=eastwest;" parent="VKsIo6Bwxz8uDlpRGmw7-74" vertex="1">
          <mxGeometry y="156" width="190" height="26" as="geometry" />
        </mxCell>
        <mxCell id="VKsIo6Bwxz8uDlpRGmw7-80" value="- codSkinPrincipal: int" style="text;align=left;verticalAlign=top;spacingLeft=4;spacingRight=4;overflow=hidden;rotatable=0;points=[[0,0.5],[1,0.5]];portConstraint=eastwest;" parent="VKsIo6Bwxz8uDlpRGmw7-74" vertex="1">
          <mxGeometry y="182" width="190" height="26" as="geometry" />
        </mxCell>
        <mxCell id="VKsIo6Bwxz8uDlpRGmw7-81" value="- data_cadastro: String" style="text;align=left;verticalAlign=top;spacingLeft=4;spacingRight=4;overflow=hidden;rotatable=0;points=[[0,0.5],[1,0.5]];portConstraint=eastwest;" parent="VKsIo6Bwxz8uDlpRGmw7-74" vertex="1">
          <mxGeometry y="208" width="190" height="26" as="geometry" />
        </mxCell>
        <mxCell id="VKsIo6Bwxz8uDlpRGmw7-82" value="- dataultimologin: String" style="text;align=left;verticalAlign=top;spacingLeft=4;spacingRight=4;overflow=hidden;rotatable=0;points=[[0,0.5],[1,0.5]];portConstraint=eastwest;" parent="VKsIo6Bwxz8uDlpRGmw7-74" vertex="1">
          <mxGeometry y="234" width="190" height="26" as="geometry" />
        </mxCell>
        <mxCell id="VKsIo6Bwxz8uDlpRGmw7-83" value="- premium: Boolean" style="text;align=left;verticalAlign=top;spacingLeft=4;spacingRight=4;overflow=hidden;rotatable=0;points=[[0,0.5],[1,0.5]];portConstraint=eastwest;" parent="VKsIo6Bwxz8uDlpRGmw7-74" vertex="1">
          <mxGeometry y="260" width="190" height="26" as="geometry" />
        </mxCell>
        <mxCell id="VKsIo6Bwxz8uDlpRGmw7-85" value="" style="line;html=1;strokeWidth=1;align=left;verticalAlign=middle;spacingTop=-1;spacingLeft=3;spacingRight=3;rotatable=0;labelPosition=right;points=[];portConstraint=eastwest;" parent="VKsIo6Bwxz8uDlpRGmw7-74" vertex="1">
          <mxGeometry y="286" width="190" height="8" as="geometry" />
        </mxCell>
        <mxCell id="VKsIo6Bwxz8uDlpRGmw7-118" value="" style="endArrow=open;shadow=0;strokeWidth=1;rounded=0;endFill=1;edgeStyle=elbowEdgeStyle;elbow=vertical;" parent="WIyWlLk6GJQsqaUBKTNV-1" source="VKsIo6Bwxz8uDlpRGmw7-74" target="VKsIo6Bwxz8uDlpRGmw7-26" edge="1">
          <mxGeometry x="0.5" y="41" relative="1" as="geometry">
            <mxPoint x="1340" y="90" as="sourcePoint" />
            <mxPoint x="1470" y="90" as="targetPoint" />
            <mxPoint x="-40" y="32" as="offset" />
          </mxGeometry>
        </mxCell>
        <mxCell id="VKsIo6Bwxz8uDlpRGmw7-120" value="1..*" style="resizable=0;align=right;verticalAlign=bottom;labelBackgroundColor=none;fontSize=12;" parent="VKsIo6Bwxz8uDlpRGmw7-118" connectable="0" vertex="1">
          <mxGeometry x="1" relative="1" as="geometry">
            <mxPoint x="-10" y="-16" as="offset" />
          </mxGeometry>
        </mxCell>
        <mxCell id="VKsIo6Bwxz8uDlpRGmw7-121" value="historicoHumor" style="text;html=1;resizable=0;points=[];;align=center;verticalAlign=middle;labelBackgroundColor=none;rounded=0;shadow=0;strokeWidth=1;fontSize=12;" parent="VKsIo6Bwxz8uDlpRGmw7-118" vertex="1" connectable="0">
          <mxGeometry x="0.5" y="49" relative="1" as="geometry">
            <mxPoint x="-27" y="63" as="offset" />
          </mxGeometry>
        </mxCell>
        <mxCell id="VKsIo6Bwxz8uDlpRGmw7-125" value="" style="endArrow=open;shadow=0;strokeWidth=1;rounded=0;endFill=1;edgeStyle=elbowEdgeStyle;elbow=vertical;" parent="WIyWlLk6GJQsqaUBKTNV-1" source="VKsIo6Bwxz8uDlpRGmw7-38" target="VKsIo6Bwxz8uDlpRGmw7-74" edge="1">
          <mxGeometry x="0.5" y="41" relative="1" as="geometry">
            <mxPoint x="950" y="85.47000000000003" as="sourcePoint" />
            <mxPoint x="1080" y="85.47000000000003" as="targetPoint" />
            <mxPoint x="-40" y="32" as="offset" />
          </mxGeometry>
        </mxCell>
        <mxCell id="VKsIo6Bwxz8uDlpRGmw7-126" value="" style="resizable=0;align=left;verticalAlign=bottom;labelBackgroundColor=none;fontSize=12;" parent="VKsIo6Bwxz8uDlpRGmw7-125" connectable="0" vertex="1">
          <mxGeometry x="-1" relative="1" as="geometry">
            <mxPoint x="80" y="10" as="offset" />
          </mxGeometry>
        </mxCell>
        <mxCell id="VKsIo6Bwxz8uDlpRGmw7-128" value="usuarios" style="text;html=1;resizable=0;points=[];;align=center;verticalAlign=middle;labelBackgroundColor=none;rounded=0;shadow=0;strokeWidth=1;fontSize=12;" parent="VKsIo6Bwxz8uDlpRGmw7-125" vertex="1" connectable="0">
          <mxGeometry x="0.5" y="49" relative="1" as="geometry">
            <mxPoint x="-11" y="67" as="offset" />
          </mxGeometry>
        </mxCell>
        <mxCell id="VKsIo6Bwxz8uDlpRGmw7-132" value="0..*" style="edgeLabel;html=1;align=center;verticalAlign=middle;resizable=0;points=[];" parent="VKsIo6Bwxz8uDlpRGmw7-125" vertex="1" connectable="0">
          <mxGeometry x="-0.1846" relative="1" as="geometry">
            <mxPoint x="41" y="-20" as="offset" />
          </mxGeometry>
        </mxCell>
        <mxCell id="VKsIo6Bwxz8uDlpRGmw7-129" value="" style="endArrow=open;shadow=0;strokeWidth=1;rounded=0;endFill=1;edgeStyle=elbowEdgeStyle;elbow=vertical;" parent="WIyWlLk6GJQsqaUBKTNV-1" source="VKsIo6Bwxz8uDlpRGmw7-50" target="VKsIo6Bwxz8uDlpRGmw7-57" edge="1">
          <mxGeometry x="0.5" y="41" relative="1" as="geometry">
            <mxPoint x="1360" y="764" as="sourcePoint" />
            <mxPoint x="1504" y="764" as="targetPoint" />
            <mxPoint x="-40" y="32" as="offset" />
          </mxGeometry>
        </mxCell>
        <mxCell id="VKsIo6Bwxz8uDlpRGmw7-130" value="1..*" style="resizable=0;align=right;verticalAlign=bottom;labelBackgroundColor=none;fontSize=12;" parent="VKsIo6Bwxz8uDlpRGmw7-129" connectable="0" vertex="1">
          <mxGeometry x="1" relative="1" as="geometry">
            <mxPoint x="-10" y="-16" as="offset" />
          </mxGeometry>
        </mxCell>
        <mxCell id="VKsIo6Bwxz8uDlpRGmw7-131" value="respiracoes" style="text;html=1;resizable=0;points=[];;align=center;verticalAlign=middle;labelBackgroundColor=none;rounded=0;shadow=0;strokeWidth=1;fontSize=12;" parent="VKsIo6Bwxz8uDlpRGmw7-129" vertex="1" connectable="0">
          <mxGeometry x="0.5" y="49" relative="1" as="geometry">
            <mxPoint x="-14" y="63" as="offset" />
          </mxGeometry>
        </mxCell>
        <mxCell id="VKsIo6Bwxz8uDlpRGmw7-137" value="UsuarioDTO" style="swimlane;fontStyle=0;align=center;verticalAlign=top;childLayout=stackLayout;horizontal=1;startSize=26;horizontalStack=0;resizeParent=1;resizeLast=0;collapsible=1;marginBottom=0;rounded=0;shadow=0;strokeWidth=1;" parent="WIyWlLk6GJQsqaUBKTNV-1" vertex="1">
          <mxGeometry x="1140" y="360" width="196" height="300" as="geometry">
            <mxRectangle x="230" y="140" width="160" height="26" as="alternateBounds" />
          </mxGeometry>
        </mxCell>
        <mxCell id="VKsIo6Bwxz8uDlpRGmw7-138" value="- id: Integer" style="text;align=left;verticalAlign=top;spacingLeft=4;spacingRight=4;overflow=hidden;rotatable=0;points=[[0,0.5],[1,0.5]];portConstraint=eastwest;" parent="VKsIo6Bwxz8uDlpRGmw7-137" vertex="1">
          <mxGeometry y="26" width="196" height="26" as="geometry" />
        </mxCell>
        <mxCell id="VKsIo6Bwxz8uDlpRGmw7-139" value="- nome: String " style="text;align=left;verticalAlign=top;spacingLeft=4;spacingRight=4;overflow=hidden;rotatable=0;points=[[0,0.5],[1,0.5]];portConstraint=eastwest;rounded=0;shadow=0;html=0;" parent="VKsIo6Bwxz8uDlpRGmw7-137" vertex="1">
          <mxGeometry y="52" width="196" height="26" as="geometry" />
        </mxCell>
        <mxCell id="VKsIo6Bwxz8uDlpRGmw7-140" value="- saldo: int" style="text;align=left;verticalAlign=top;spacingLeft=4;spacingRight=4;overflow=hidden;rotatable=0;points=[[0,0.5],[1,0.5]];portConstraint=eastwest;rounded=0;shadow=0;html=0;" parent="VKsIo6Bwxz8uDlpRGmw7-137" vertex="1">
          <mxGeometry y="78" width="196" height="26" as="geometry" />
        </mxCell>
        <mxCell id="VKsIo6Bwxz8uDlpRGmw7-141" value="- ofensiva: int" style="text;align=left;verticalAlign=top;spacingLeft=4;spacingRight=4;overflow=hidden;rotatable=0;points=[[0,0.5],[1,0.5]];portConstraint=eastwest;rounded=0;shadow=0;html=0;" parent="VKsIo6Bwxz8uDlpRGmw7-137" vertex="1">
          <mxGeometry y="104" width="196" height="26" as="geometry" />
        </mxCell>
        <mxCell id="VKsIo6Bwxz8uDlpRGmw7-142" value="- email: String " style="text;align=left;verticalAlign=top;spacingLeft=4;spacingRight=4;overflow=hidden;rotatable=0;points=[[0,0.5],[1,0.5]];portConstraint=eastwest;" parent="VKsIo6Bwxz8uDlpRGmw7-137" vertex="1">
          <mxGeometry y="130" width="196" height="26" as="geometry" />
        </mxCell>
        <mxCell id="VKsIo6Bwxz8uDlpRGmw7-144" value="- codSkin: int" style="text;align=left;verticalAlign=top;spacingLeft=4;spacingRight=4;overflow=hidden;rotatable=0;points=[[0,0.5],[1,0.5]];portConstraint=eastwest;" parent="VKsIo6Bwxz8uDlpRGmw7-137" vertex="1">
          <mxGeometry y="156" width="196" height="26" as="geometry" />
        </mxCell>
        <mxCell id="VKsIo6Bwxz8uDlpRGmw7-145" value="- dataCadastro: LocalDateTime" style="text;align=left;verticalAlign=top;spacingLeft=4;spacingRight=4;overflow=hidden;rotatable=0;points=[[0,0.5],[1,0.5]];portConstraint=eastwest;" parent="VKsIo6Bwxz8uDlpRGmw7-137" vertex="1">
          <mxGeometry y="182" width="196" height="26" as="geometry" />
        </mxCell>
        <mxCell id="VKsIo6Bwxz8uDlpRGmw7-146" value="- ultimoAcesso: LocalDateTime" style="text;align=left;verticalAlign=top;spacingLeft=4;spacingRight=4;overflow=hidden;rotatable=0;points=[[0,0.5],[1,0.5]];portConstraint=eastwest;" parent="VKsIo6Bwxz8uDlpRGmw7-137" vertex="1">
          <mxGeometry y="208" width="196" height="26" as="geometry" />
        </mxCell>
        <mxCell id="VKsIo6Bwxz8uDlpRGmw7-147" value="- premium: boolean" style="text;align=left;verticalAlign=top;spacingLeft=4;spacingRight=4;overflow=hidden;rotatable=0;points=[[0,0.5],[1,0.5]];portConstraint=eastwest;" parent="VKsIo6Bwxz8uDlpRGmw7-137" vertex="1">
          <mxGeometry y="234" width="196" height="26" as="geometry" />
        </mxCell>
        <mxCell id="VKsIo6Bwxz8uDlpRGmw7-148" value="" style="line;html=1;strokeWidth=1;align=left;verticalAlign=middle;spacingTop=-1;spacingLeft=3;spacingRight=3;rotatable=0;labelPosition=right;points=[];portConstraint=eastwest;" parent="VKsIo6Bwxz8uDlpRGmw7-137" vertex="1">
          <mxGeometry y="260" width="196" height="8" as="geometry" />
        </mxCell>
        <mxCell id="VKsIo6Bwxz8uDlpRGmw7-149" value="+ addHistorico(Humor humor):void" style="text;align=left;verticalAlign=top;spacingLeft=4;spacingRight=4;overflow=hidden;rotatable=0;points=[[0,0.5],[1,0.5]];portConstraint=eastwest;" parent="VKsIo6Bwxz8uDlpRGmw7-137" vertex="1">
          <mxGeometry y="268" width="196" height="26" as="geometry" />
        </mxCell>
        <mxCell id="VKsIo6Bwxz8uDlpRGmw7-150" value="Humor DTO   " style="swimlane;fontStyle=0;align=center;verticalAlign=top;childLayout=stackLayout;horizontal=1;startSize=26;horizontalStack=0;resizeParent=1;resizeLast=0;collapsible=1;marginBottom=0;rounded=0;shadow=0;strokeWidth=1;" parent="WIyWlLk6GJQsqaUBKTNV-1" vertex="1">
          <mxGeometry x="1430" y="360" width="190" height="144" as="geometry">
            <mxRectangle x="230" y="140" width="160" height="26" as="alternateBounds" />
          </mxGeometry>
        </mxCell>
        <mxCell id="VKsIo6Bwxz8uDlpRGmw7-151" value="- data: LocalDate" style="text;align=left;verticalAlign=top;spacingLeft=4;spacingRight=4;overflow=hidden;rotatable=0;points=[[0,0.5],[1,0.5]];portConstraint=eastwest;" parent="VKsIo6Bwxz8uDlpRGmw7-150" vertex="1">
          <mxGeometry y="26" width="190" height="26" as="geometry" />
        </mxCell>
        <mxCell id="VKsIo6Bwxz8uDlpRGmw7-152" value="- nivelSatisfacao: Satisfacao" style="text;align=left;verticalAlign=top;spacingLeft=4;spacingRight=4;overflow=hidden;rotatable=0;points=[[0,0.5],[1,0.5]];portConstraint=eastwest;rounded=0;shadow=0;html=0;" parent="VKsIo6Bwxz8uDlpRGmw7-150" vertex="1">
          <mxGeometry y="52" width="190" height="26" as="geometry" />
        </mxCell>
        <mxCell id="VKsIo6Bwxz8uDlpRGmw7-172" value="- comentario: String " style="text;align=left;verticalAlign=top;spacingLeft=4;spacingRight=4;overflow=hidden;rotatable=0;points=[[0,0.5],[1,0.5]];portConstraint=eastwest;" parent="VKsIo6Bwxz8uDlpRGmw7-150" vertex="1">
          <mxGeometry y="78" width="190" height="32" as="geometry" />
        </mxCell>
        <mxCell id="VKsIo6Bwxz8uDlpRGmw7-153" value="- imagem: Integer" style="text;align=left;verticalAlign=top;spacingLeft=4;spacingRight=4;overflow=hidden;rotatable=0;points=[[0,0.5],[1,0.5]];portConstraint=eastwest;rounded=0;shadow=0;html=0;" parent="VKsIo6Bwxz8uDlpRGmw7-150" vertex="1">
          <mxGeometry y="110" width="190" height="26" as="geometry" />
        </mxCell>
        <mxCell id="VKsIo6Bwxz8uDlpRGmw7-154" value="" style="line;html=1;strokeWidth=1;align=left;verticalAlign=middle;spacingTop=-1;spacingLeft=3;spacingRight=3;rotatable=0;labelPosition=right;points=[];portConstraint=eastwest;" parent="VKsIo6Bwxz8uDlpRGmw7-150" vertex="1">
          <mxGeometry y="136" width="190" height="8" as="geometry" />
        </mxCell>
        <mxCell id="VKsIo6Bwxz8uDlpRGmw7-163" value="" style="endArrow=open;shadow=0;strokeWidth=1;rounded=0;endFill=1;edgeStyle=elbowEdgeStyle;elbow=vertical;" parent="WIyWlLk6GJQsqaUBKTNV-1" source="VKsIo6Bwxz8uDlpRGmw7-137" target="VKsIo6Bwxz8uDlpRGmw7-150" edge="1">
          <mxGeometry x="0.5" y="41" relative="1" as="geometry">
            <mxPoint x="1336" y="410.29" as="sourcePoint" />
            <mxPoint x="1430" y="410.29" as="targetPoint" />
            <mxPoint x="-40" y="32" as="offset" />
          </mxGeometry>
        </mxCell>
        <mxCell id="VKsIo6Bwxz8uDlpRGmw7-164" value="1..*" style="resizable=0;align=right;verticalAlign=bottom;labelBackgroundColor=none;fontSize=12;" parent="VKsIo6Bwxz8uDlpRGmw7-163" connectable="0" vertex="1">
          <mxGeometry x="1" relative="1" as="geometry">
            <mxPoint x="-10" y="-16" as="offset" />
          </mxGeometry>
        </mxCell>
        <mxCell id="VKsIo6Bwxz8uDlpRGmw7-165" value="historicoHumor" style="text;html=1;resizable=0;points=[];;align=center;verticalAlign=middle;labelBackgroundColor=none;rounded=0;shadow=0;strokeWidth=1;fontSize=12;" parent="VKsIo6Bwxz8uDlpRGmw7-163" vertex="1" connectable="0">
          <mxGeometry x="0.5" y="49" relative="1" as="geometry">
            <mxPoint x="-27" y="63" as="offset" />
          </mxGeometry>
        </mxCell>
        <mxCell id="VKsIo6Bwxz8uDlpRGmw7-169" value="" style="endArrow=open;shadow=0;strokeWidth=1;rounded=0;endFill=1;edgeStyle=elbowEdgeStyle;elbow=vertical;" parent="WIyWlLk6GJQsqaUBKTNV-1" source="VKsIo6Bwxz8uDlpRGmw7-150" target="VKsIo6Bwxz8uDlpRGmw7-174" edge="1">
          <mxGeometry x="0.5" y="41" relative="1" as="geometry">
            <mxPoint x="1640" y="392.65" as="sourcePoint" />
            <mxPoint x="1740" y="432.28571428571433" as="targetPoint" />
            <mxPoint x="-40" y="32" as="offset" />
          </mxGeometry>
        </mxCell>
        <mxCell id="VKsIo6Bwxz8uDlpRGmw7-170" value="1..1" style="resizable=0;align=right;verticalAlign=bottom;labelBackgroundColor=none;fontSize=12;" parent="VKsIo6Bwxz8uDlpRGmw7-169" connectable="0" vertex="1">
          <mxGeometry x="1" relative="1" as="geometry">
            <mxPoint x="-10" y="-16" as="offset" />
          </mxGeometry>
        </mxCell>
        <mxCell id="VKsIo6Bwxz8uDlpRGmw7-171" value="nivelSatisfacao" style="text;html=1;resizable=0;points=[];;align=center;verticalAlign=middle;labelBackgroundColor=none;rounded=0;shadow=0;strokeWidth=1;fontSize=12;" parent="VKsIo6Bwxz8uDlpRGmw7-169" vertex="1" connectable="0">
          <mxGeometry x="0.5" y="49" relative="1" as="geometry">
            <mxPoint x="-27" y="63" as="offset" />
          </mxGeometry>
        </mxCell>
        <mxCell id="VKsIo6Bwxz8uDlpRGmw7-174" value="&lt;&lt;enumeration&gt;&gt;&#xa;Satisfacao" style="swimlane;fontStyle=0;align=center;verticalAlign=top;childLayout=stackLayout;horizontal=1;startSize=40;horizontalStack=0;resizeParent=1;resizeLast=0;collapsible=1;marginBottom=0;rounded=0;shadow=0;strokeWidth=1;" parent="WIyWlLk6GJQsqaUBKTNV-1" vertex="1">
          <mxGeometry x="1720" y="360" width="190" height="184" as="geometry">
            <mxRectangle x="230" y="140" width="160" height="26" as="alternateBounds" />
          </mxGeometry>
        </mxCell>
        <mxCell id="VKsIo6Bwxz8uDlpRGmw7-175" value="MUITO_TRISTE" style="text;align=left;verticalAlign=top;spacingLeft=4;spacingRight=4;overflow=hidden;rotatable=0;points=[[0,0.5],[1,0.5]];portConstraint=eastwest;" parent="VKsIo6Bwxz8uDlpRGmw7-174" vertex="1">
          <mxGeometry y="40" width="190" height="26" as="geometry" />
        </mxCell>
        <mxCell id="VKsIo6Bwxz8uDlpRGmw7-176" value="TRISTE" style="text;align=left;verticalAlign=top;spacingLeft=4;spacingRight=4;overflow=hidden;rotatable=0;points=[[0,0.5],[1,0.5]];portConstraint=eastwest;rounded=0;shadow=0;html=0;" parent="VKsIo6Bwxz8uDlpRGmw7-174" vertex="1">
          <mxGeometry y="66" width="190" height="26" as="geometry" />
        </mxCell>
        <mxCell id="VKsIo6Bwxz8uDlpRGmw7-177" value="NORMAL" style="text;align=left;verticalAlign=top;spacingLeft=4;spacingRight=4;overflow=hidden;rotatable=0;points=[[0,0.5],[1,0.5]];portConstraint=eastwest;" parent="VKsIo6Bwxz8uDlpRGmw7-174" vertex="1">
          <mxGeometry y="92" width="190" height="32" as="geometry" />
        </mxCell>
        <mxCell id="VKsIo6Bwxz8uDlpRGmw7-178" value=" BEM" style="text;align=left;verticalAlign=top;spacingLeft=4;spacingRight=4;overflow=hidden;rotatable=0;points=[[0,0.5],[1,0.5]];portConstraint=eastwest;rounded=0;shadow=0;html=0;" parent="VKsIo6Bwxz8uDlpRGmw7-174" vertex="1">
          <mxGeometry y="124" width="190" height="26" as="geometry" />
        </mxCell>
        <mxCell id="VKsIo6Bwxz8uDlpRGmw7-180" value="MUITO_BEM" style="text;align=left;verticalAlign=top;spacingLeft=4;spacingRight=4;overflow=hidden;rotatable=0;points=[[0,0.5],[1,0.5]];portConstraint=eastwest;rounded=0;shadow=0;html=0;" parent="VKsIo6Bwxz8uDlpRGmw7-174" vertex="1">
          <mxGeometry y="150" width="190" height="26" as="geometry" />
        </mxCell>
        <mxCell id="VKsIo6Bwxz8uDlpRGmw7-179" value="" style="line;html=1;strokeWidth=1;align=left;verticalAlign=middle;spacingTop=-1;spacingLeft=3;spacingRight=3;rotatable=0;labelPosition=right;points=[];portConstraint=eastwest;" parent="VKsIo6Bwxz8uDlpRGmw7-174" vertex="1">
          <mxGeometry y="176" width="190" height="8" as="geometry" />
        </mxCell>
      </root>
    </mxGraphModel>
  </diagram>
</mxfile>
